<svg width="293" height="168" viewBox="0 0 293 168" fill="none" xmlns="http://www.w3.org/2000/svg">
<path d="M10.456 144.639C7.30536 144.639 4.75125 142.105 4.75125 138.978V39.6027H16.1757C22.5342 39.6027 28.4492 42.8364 31.8471 48.17L65.9345 101.678H56.5332L87.5622 70.6563C92.9174 65.3024 100.205 62.2912 107.806 62.2912H117.567V138.978C117.567 142.105 115.013 144.639 111.862 144.639H75.2035C72.1185 144.639 70.0474 141.498 71.2831 138.693L89.23 97.9505L90.0298 101.678L72.0783 122.425C69.9107 124.93 66.7492 126.371 63.422 126.371H57.4502C53.8437 126.371 50.4494 124.679 48.2965 121.808L33.2039 101.678V92.4743L46.076 137.431C47.111 141.046 44.3751 144.639 40.5884 144.639H10.456Z" fill="white"/>
<path d="M30.4856 14.5864C30.4856 22.6423 23.6612 29.1728 15.2428 29.1728C6.82443 29.1728 0 22.6423 0 14.5864C0 6.53056 6.82443 0 15.2428 0C23.6612 0 30.4856 6.53056 30.4856 14.5864Z" fill="white"/>
<path d="M123.022 43.7592C123.022 51.8151 116.198 58.3457 107.78 58.3457C99.3612 58.3457 92.5368 51.8151 92.5368 43.7592C92.5368 35.7034 99.3612 29.1728 107.78 29.1728C116.198 29.1728 123.022 35.7034 123.022 43.7592Z" fill="white"/>
<path d="M265.494 144.639C260.171 144.639 255.406 143.52 251.199 141.281C247.059 138.974 243.773 135.819 241.341 131.815C238.975 127.812 237.792 123.3 237.792 118.278C237.792 113.257 238.975 108.779 241.341 104.844C243.707 100.908 246.96 97.8207 251.101 95.5816C255.307 93.2746 260.072 92.1211 265.396 92.1211C270.72 92.1211 275.452 93.2746 279.592 95.5816C283.733 97.8207 286.986 100.908 289.352 104.844C291.784 108.779 293 113.257 293 118.278C293 123.3 291.817 127.812 289.451 131.815C287.085 135.819 283.831 138.974 279.691 141.281C275.55 143.52 270.818 144.639 265.494 144.639ZM265.396 127.133C267.039 127.133 268.452 126.794 269.635 126.116C270.884 125.369 271.837 124.351 272.494 123.062C273.151 121.705 273.48 120.144 273.48 118.38C273.48 116.616 273.118 115.089 272.395 113.8C271.738 112.443 270.818 111.425 269.635 110.747C268.452 110 267.039 109.627 265.396 109.627C263.818 109.627 262.405 110 261.157 110.747C259.974 111.493 259.021 112.545 258.298 113.902C257.64 115.191 257.312 116.718 257.312 118.482C257.312 120.178 257.64 121.705 258.298 123.062C259.021 124.351 259.974 125.369 261.157 126.116C262.405 126.794 263.818 127.133 265.396 127.133Z" fill="white"/>
<path d="M203.883 144.639C198.894 144.639 194.521 143.521 190.763 141.283C187.073 139.045 184.169 135.994 182.051 132.128C180.001 128.195 178.976 123.686 178.976 118.6C178.976 113.514 180.001 109.005 182.051 105.072C184.169 101.139 187.073 98.0873 190.763 95.9174C194.521 93.6796 198.894 92.5607 203.883 92.5607C206.889 92.5607 209.725 93.0693 212.39 94.0865C215.055 95.0358 217.31 96.392 219.155 98.1551C221.068 99.9182 222.264 101.953 222.742 104.258V131.925C222.264 134.23 221.068 136.367 219.155 138.333C217.31 140.232 215.055 141.758 212.39 142.91C209.725 144.063 206.889 144.639 203.883 144.639ZM207.573 127.144C209.281 127.144 210.75 126.805 211.98 126.127C213.21 125.381 214.167 124.364 214.85 123.076C215.602 121.787 215.977 120.295 215.977 118.6C215.977 116.905 215.636 115.447 214.952 114.226C214.269 112.938 213.278 111.921 211.98 111.175C210.75 110.429 209.315 110.056 207.675 110.056C206.035 110.056 204.566 110.429 203.268 111.175C202.038 111.921 201.047 112.938 200.295 114.226C199.544 115.515 199.168 116.973 199.168 118.6C199.168 120.228 199.509 121.685 200.193 122.974C200.944 124.262 201.969 125.279 203.268 126.025C204.566 126.771 206.001 127.144 207.573 127.144ZM234.939 144.639H222.493C218.555 144.639 215.362 141.471 215.362 137.563V130.196L218.13 117.99L214.85 105.886V77.8661C214.85 69.2678 221.874 62.2975 230.538 62.2975H234.939V144.639Z" fill="white"/>
<path d="M142.719 145.301L121.589 92.1211H139.797C142.411 92.1211 144.691 93.8849 145.329 96.4012L152.845 126.048H150.075L158.339 96.2789C159.02 93.8227 161.271 92.1211 163.839 92.1211H182.039L161.018 145.193L142.719 145.301ZM131.065 168L148.055 134.182L161.018 145.193L153.4 164.411C152.542 166.576 150.436 168 148.091 168H131.065Z" fill="white"/>
<path d="M37.246 167.501V157.679H38.1872L42.3803 164.515H41.7385L45.9315 157.679H46.8728V167.501H45.5321V160.014L45.8459 160.099L42.5371 165.491H41.5958L38.2871 160.099L38.5866 160.014V167.501H37.246Z" fill="white"/>
<path d="M52.0765 167.643C51.4109 167.643 50.8119 167.487 50.2795 167.175C49.747 166.864 49.3239 166.444 49.0102 165.916C48.6964 165.378 48.5395 164.779 48.5395 164.118C48.5395 163.467 48.6964 162.882 49.0102 162.363C49.3239 161.835 49.747 161.415 50.2795 161.104C50.8119 160.792 51.4109 160.637 52.0765 160.637C52.7325 160.637 53.3268 160.792 53.8592 161.104C54.4012 161.406 54.829 161.821 55.1428 162.349C55.4566 162.878 55.6134 163.467 55.6134 164.118C55.6134 164.779 55.4566 165.378 55.1428 165.916C54.829 166.444 54.4012 166.864 53.8592 167.175C53.3268 167.487 52.7325 167.643 52.0765 167.643ZM52.0765 166.411C52.5043 166.411 52.8846 166.312 53.2174 166.114C53.5502 165.916 53.8117 165.647 54.0018 165.307C54.192 164.958 54.2871 164.562 54.2871 164.118C54.2871 163.684 54.1872 163.297 53.9876 162.958C53.7974 162.618 53.5359 162.354 53.2032 162.165C52.8799 161.967 52.5043 161.868 52.0765 161.868C51.6486 161.868 51.2683 161.967 50.9355 162.165C50.6027 162.354 50.3413 162.618 50.1511 162.958C49.961 163.297 49.8659 163.684 49.8659 164.118C49.8659 164.562 49.961 164.958 50.1511 165.307C50.3413 165.647 50.6027 165.916 50.9355 166.114C51.2683 166.312 51.6486 166.411 52.0765 166.411Z" fill="white"/>
<path d="M61.8517 167.501V163.581C61.8517 163.071 61.6901 162.651 61.3668 162.321C61.0435 161.991 60.6252 161.826 60.1117 161.826C59.7694 161.826 59.4652 161.901 59.199 162.052C58.9327 162.203 58.7236 162.411 58.5714 162.675C58.4193 162.939 58.3433 163.241 58.3433 163.581L57.8156 163.283C57.8156 162.774 57.9297 162.321 58.1578 161.925C58.386 161.528 58.7046 161.217 59.1134 160.99C59.5222 160.755 59.9834 160.637 60.4968 160.637C61.0102 160.637 61.4619 160.764 61.8517 161.019C62.251 161.274 62.5648 161.609 62.793 162.024C63.0212 162.429 63.1353 162.863 63.1353 163.326V167.501H61.8517ZM57.0597 167.501V160.778H58.3433V167.501H57.0597Z" fill="white"/>
<path d="M64.8874 167.501V160.778H66.1709V167.501H64.8874ZM65.5292 159.434C65.2915 159.434 65.0965 159.358 64.9444 159.207C64.7923 159.047 64.7162 158.849 64.7162 158.613C64.7162 158.386 64.7923 158.198 64.9444 158.047C65.0965 157.886 65.2915 157.806 65.5292 157.806C65.7668 157.806 65.9618 157.886 66.1139 158.047C66.266 158.198 66.3421 158.386 66.3421 158.613C66.3421 158.849 66.266 159.047 66.1139 159.207C65.9618 159.358 65.7668 159.434 65.5292 159.434Z" fill="white"/>
<path d="M69.1037 167.501V157.962H70.3872V167.501H69.1037ZM67.435 161.939V160.778H72.0559V161.939H67.435Z" fill="white"/>
<path d="M76.1992 167.643C75.5336 167.643 74.9346 167.487 74.4022 167.175C73.8697 166.864 73.4466 166.444 73.1329 165.916C72.8191 165.378 72.6622 164.779 72.6622 164.118C72.6622 163.467 72.8191 162.882 73.1329 162.363C73.4466 161.835 73.8697 161.415 74.4022 161.104C74.9346 160.792 75.5336 160.637 76.1992 160.637C76.8552 160.637 77.4495 160.792 77.9819 161.104C78.5239 161.406 78.9517 161.821 79.2655 162.349C79.5793 162.878 79.7361 163.467 79.7361 164.118C79.7361 164.779 79.5793 165.378 79.2655 165.916C78.9517 166.444 78.5239 166.864 77.9819 167.175C77.4495 167.487 76.8552 167.643 76.1992 167.643ZM76.1992 166.411C76.627 166.411 77.0074 166.312 77.3401 166.114C77.6729 165.916 77.9344 165.647 78.1245 165.307C78.3147 164.958 78.4098 164.562 78.4098 164.118C78.4098 163.684 78.31 163.297 78.1103 162.958C77.9201 162.618 77.6587 162.354 77.3259 162.165C77.0026 161.967 76.627 161.868 76.1992 161.868C75.7713 161.868 75.391 161.967 75.0582 162.165C74.7255 162.354 74.464 162.618 74.2738 162.958C74.0837 163.297 73.9886 163.684 73.9886 164.118C73.9886 164.562 74.0837 164.958 74.2738 165.307C74.464 165.647 74.7255 165.916 75.0582 166.114C75.391 166.312 75.7713 166.411 76.1992 166.411Z" fill="white"/>
<path d="M81.1824 167.501V160.778H82.466V167.501H81.1824ZM82.466 163.665L81.9811 163.453C81.9811 162.595 82.1807 161.91 82.5801 161.401C82.9794 160.891 83.5546 160.637 84.3058 160.637C84.648 160.637 84.957 160.698 85.2328 160.821C85.5085 160.934 85.7652 161.127 86.0029 161.401L85.1615 162.264C85.0189 162.113 84.862 162.005 84.6908 161.939C84.5197 161.873 84.32 161.84 84.0918 161.84C83.6164 161.84 83.2266 161.991 82.9224 162.293C82.6181 162.595 82.466 163.052 82.466 163.665Z" fill="white"/>
<path d="M93.0859 163.51L89.1924 157.679H90.7469L93.8845 162.448H93.1857L96.3376 157.679H97.8636L93.9416 163.51H93.0859ZM92.8577 167.501V162.632H94.1983V167.501H92.8577Z" fill="white"/>
<path d="M100.197 167.643C99.531 167.643 98.932 167.487 98.3996 167.175C97.8671 166.864 97.444 166.444 97.1302 165.916C96.8165 165.378 96.6596 164.779 96.6596 164.118C96.6596 163.467 96.8165 162.882 97.1302 162.363C97.444 161.835 97.8671 161.415 98.3996 161.104C98.932 160.792 99.531 160.637 100.197 160.637C100.853 160.637 101.447 160.792 101.979 161.104C102.521 161.406 102.949 161.821 103.263 162.349C103.577 162.878 103.734 163.467 103.734 164.118C103.734 164.779 103.577 165.378 103.263 165.916C102.949 166.444 102.521 166.864 101.979 167.175C101.447 167.487 100.853 167.643 100.197 167.643ZM100.197 166.411C100.624 166.411 101.005 166.312 101.338 166.114C101.67 165.916 101.932 165.647 102.122 165.307C102.312 164.958 102.407 164.562 102.407 164.118C102.407 163.684 102.307 163.297 102.108 162.958C101.917 162.618 101.656 162.354 101.323 162.165C101 161.967 100.624 161.868 100.197 161.868C99.7687 161.868 99.3884 161.967 99.0556 162.165C98.7228 162.354 98.4614 162.618 98.2712 162.958C98.081 163.297 97.986 163.684 97.986 164.118C97.986 164.562 98.081 164.958 98.2712 165.307C98.4614 165.647 98.7228 165.916 99.0556 166.114C99.3884 166.312 99.7687 166.411 100.197 166.411Z" fill="white"/>
<path d="M107.904 167.643C107.352 167.643 106.853 167.52 106.406 167.275C105.969 167.02 105.627 166.671 105.379 166.227C105.132 165.784 105.009 165.269 105.009 164.684V160.778H106.292V164.628C106.292 164.996 106.354 165.317 106.478 165.59C106.611 165.854 106.801 166.057 107.048 166.199C107.295 166.34 107.585 166.411 107.918 166.411C108.422 166.411 108.817 166.255 109.102 165.944C109.387 165.623 109.53 165.185 109.53 164.628V160.778H110.813V164.684C110.813 165.269 110.69 165.784 110.442 166.227C110.195 166.671 109.853 167.02 109.416 167.275C108.988 167.52 108.484 167.643 107.904 167.643Z" fill="white"/>
<path d="M112.534 167.501V160.778H113.817V167.501H112.534ZM113.817 163.665L113.332 163.453C113.332 162.595 113.532 161.91 113.931 161.401C114.331 160.891 114.906 160.637 115.657 160.637C115.999 160.637 116.308 160.698 116.584 160.821C116.86 160.934 117.116 161.127 117.354 161.401L116.513 162.264C116.37 162.113 116.213 162.005 116.042 161.939C115.871 161.873 115.671 161.84 115.443 161.84C114.968 161.84 114.578 161.991 114.274 162.293C113.969 162.595 113.817 163.052 113.817 163.665Z" fill="white"/>
<path d="M174.803 167.501V166.284H177.555C178.287 166.284 178.929 166.128 179.481 165.817C180.032 165.496 180.46 165.057 180.764 164.5C181.078 163.944 181.235 163.302 181.235 162.576C181.235 161.859 181.078 161.222 180.764 160.665C180.45 160.108 180.018 159.674 179.466 159.363C178.915 159.051 178.278 158.896 177.555 158.896H174.817V157.679H177.584C178.306 157.679 178.972 157.801 179.58 158.047C180.198 158.292 180.731 158.636 181.178 159.08C181.634 159.523 181.986 160.042 182.233 160.637C182.49 161.231 182.618 161.882 182.618 162.59C182.618 163.288 182.49 163.939 182.233 164.543C181.986 165.137 181.639 165.656 181.192 166.1C180.745 166.543 180.213 166.888 179.595 167.133C178.986 167.378 178.325 167.501 177.612 167.501H174.803ZM173.918 167.501V157.679H175.259V167.501H173.918Z" fill="white"/>
<path d="M187.342 167.643C186.677 167.643 186.078 167.487 185.545 167.175C185.013 166.864 184.59 166.444 184.276 165.916C183.962 165.378 183.805 164.779 183.805 164.118C183.805 163.467 183.962 162.882 184.276 162.363C184.59 161.835 185.013 161.415 185.545 161.104C186.078 160.792 186.677 160.637 187.342 160.637C187.998 160.637 188.593 160.792 189.125 161.104C189.667 161.406 190.095 161.821 190.409 162.349C190.722 162.878 190.879 163.467 190.879 164.118C190.879 164.779 190.722 165.378 190.409 165.916C190.095 166.444 189.667 166.864 189.125 167.175C188.593 167.487 187.998 167.643 187.342 167.643ZM187.342 166.411C187.77 166.411 188.15 166.312 188.483 166.114C188.816 165.916 189.077 165.647 189.268 165.307C189.458 164.958 189.553 164.562 189.553 164.118C189.553 163.684 189.453 163.297 189.253 162.958C189.063 162.618 188.802 162.354 188.469 162.165C188.146 161.967 187.77 161.868 187.342 161.868C186.914 161.868 186.534 161.967 186.201 162.165C185.869 162.354 185.607 162.618 185.417 162.958C185.227 163.297 185.132 163.684 185.132 164.118C185.132 164.562 185.227 164.958 185.417 165.307C185.607 165.647 185.869 165.916 186.201 166.114C186.534 166.312 186.914 166.411 187.342 166.411Z" fill="white"/>
<path d="M197.118 167.501V163.581C197.118 163.071 196.956 162.651 196.633 162.321C196.309 161.991 195.891 161.826 195.378 161.826C195.035 161.826 194.731 161.901 194.465 162.052C194.199 162.203 193.989 162.411 193.837 162.675C193.685 162.939 193.609 163.241 193.609 163.581L193.081 163.283C193.081 162.774 193.195 162.321 193.424 161.925C193.652 161.528 193.97 161.217 194.379 160.99C194.788 160.755 195.249 160.637 195.763 160.637C196.276 160.637 196.728 160.764 197.118 161.019C197.517 161.274 197.831 161.609 198.059 162.024C198.287 162.429 198.401 162.863 198.401 163.326V167.501H197.118ZM192.326 167.501V160.778H193.609V167.501H192.326Z" fill="white"/>
<path d="M203.02 167.643C202.402 167.643 201.841 167.492 201.337 167.19C200.833 166.878 200.434 166.458 200.139 165.93C199.854 165.402 199.711 164.807 199.711 164.147C199.711 163.486 199.854 162.892 200.139 162.363C200.434 161.835 200.828 161.415 201.323 161.104C201.827 160.792 202.392 160.637 203.02 160.637C203.533 160.637 203.99 160.745 204.389 160.962C204.798 161.17 205.126 161.462 205.373 161.84C205.62 162.208 205.758 162.637 205.787 163.128V165.152C205.758 165.633 205.62 166.062 205.373 166.439C205.135 166.817 204.812 167.114 204.403 167.331C204.004 167.539 203.543 167.643 203.02 167.643ZM203.234 166.439C203.871 166.439 204.384 166.227 204.774 165.803C205.164 165.369 205.359 164.817 205.359 164.147C205.359 163.684 205.268 163.283 205.088 162.944C204.917 162.595 204.669 162.326 204.346 162.137C204.023 161.939 203.647 161.84 203.22 161.84C202.792 161.84 202.411 161.939 202.079 162.137C201.755 162.335 201.499 162.609 201.308 162.958C201.128 163.297 201.037 163.689 201.037 164.133C201.037 164.585 201.128 164.986 201.308 165.336C201.499 165.675 201.76 165.944 202.093 166.142C202.426 166.34 202.806 166.439 203.234 166.439ZM205.273 167.501V165.689L205.516 164.048L205.273 162.42V160.778H206.571V167.501H205.273Z" fill="white"/>
<path d="M209.453 167.501V157.962H210.737V167.501H209.453ZM207.784 161.939V160.778H212.405V161.939H207.784Z" fill="white"/>
<path d="M213.677 167.501V160.778H214.961V167.501H213.677ZM214.319 159.434C214.081 159.434 213.886 159.358 213.734 159.207C213.582 159.047 213.506 158.849 213.506 158.613C213.506 158.386 213.582 158.198 213.734 158.047C213.886 157.886 214.081 157.806 214.319 157.806C214.556 157.806 214.751 157.886 214.903 158.047C215.056 158.198 215.132 158.386 215.132 158.613C215.132 158.849 215.056 159.047 214.903 159.207C214.751 159.358 214.556 159.434 214.319 159.434Z" fill="white"/>
<path d="M219.947 167.643C219.281 167.643 218.682 167.487 218.15 167.175C217.618 166.864 217.194 166.444 216.881 165.916C216.567 165.378 216.41 164.779 216.41 164.118C216.41 163.467 216.567 162.882 216.881 162.363C217.194 161.835 217.618 161.415 218.15 161.104C218.682 160.792 219.281 160.637 219.947 160.637C220.603 160.637 221.197 160.792 221.73 161.104C222.272 161.406 222.7 161.821 223.013 162.349C223.327 162.878 223.484 163.467 223.484 164.118C223.484 164.779 223.327 165.378 223.013 165.916C222.7 166.444 222.272 166.864 221.73 167.175C221.197 167.487 220.603 167.643 219.947 167.643ZM219.947 166.411C220.375 166.411 220.755 166.312 221.088 166.114C221.421 165.916 221.682 165.647 221.872 165.307C222.062 164.958 222.158 164.562 222.158 164.118C222.158 163.684 222.058 163.297 221.858 162.958C221.668 162.618 221.406 162.354 221.074 162.165C220.75 161.967 220.375 161.868 219.947 161.868C219.519 161.868 219.139 161.967 218.806 162.165C218.473 162.354 218.212 162.618 218.022 162.958C217.831 163.297 217.736 163.684 217.736 164.118C217.736 164.562 217.831 164.958 218.022 165.307C218.212 165.647 218.473 165.916 218.806 166.114C219.139 166.312 219.519 166.411 219.947 166.411Z" fill="white"/>
<path d="M229.722 167.501V163.581C229.722 163.071 229.561 162.651 229.237 162.321C228.914 161.991 228.496 161.826 227.982 161.826C227.64 161.826 227.336 161.901 227.069 162.052C226.803 162.203 226.594 162.411 226.442 162.675C226.29 162.939 226.214 163.241 226.214 163.581L225.686 163.283C225.686 162.774 225.8 162.321 226.028 161.925C226.257 161.528 226.575 161.217 226.984 160.99C227.393 160.755 227.854 160.637 228.367 160.637C228.881 160.637 229.332 160.764 229.722 161.019C230.122 161.274 230.435 161.609 230.663 162.024C230.892 162.429 231.006 162.863 231.006 163.326V167.501H229.722ZM224.93 167.501V160.778H226.214V167.501H224.93Z" fill="white"/>
<path d="M240.445 167.643C239.742 167.643 239.086 167.515 238.477 167.26C237.869 166.996 237.336 166.633 236.88 166.171C236.423 165.699 236.067 165.156 235.81 164.543C235.563 163.93 235.439 163.274 235.439 162.576C235.439 161.868 235.563 161.212 235.81 160.608C236.067 159.995 236.419 159.457 236.865 158.995C237.322 158.533 237.849 158.174 238.448 157.919C239.057 157.664 239.713 157.537 240.417 157.537C241.12 157.537 241.771 157.664 242.37 157.919C242.979 158.174 243.511 158.533 243.968 158.995C244.424 159.457 244.781 159.995 245.037 160.608C245.294 161.222 245.423 161.882 245.423 162.59C245.423 163.288 245.294 163.944 245.037 164.557C244.781 165.17 244.424 165.708 243.968 166.171C243.521 166.633 242.993 166.996 242.385 167.26C241.786 167.515 241.139 167.643 240.445 167.643ZM240.417 166.369C241.13 166.369 241.752 166.208 242.285 165.887C242.827 165.557 243.255 165.109 243.569 164.543C243.882 163.967 244.039 163.312 244.039 162.576C244.039 162.028 243.949 161.528 243.768 161.075C243.588 160.613 243.336 160.212 243.012 159.872C242.689 159.533 242.309 159.273 241.871 159.094C241.434 158.905 240.949 158.811 240.417 158.811C239.713 158.811 239.09 158.971 238.548 159.292C238.016 159.613 237.593 160.056 237.279 160.622C236.975 161.189 236.823 161.84 236.823 162.576C236.823 163.123 236.908 163.632 237.079 164.104C237.26 164.567 237.507 164.968 237.821 165.307C238.144 165.637 238.525 165.897 238.962 166.086C239.409 166.274 239.894 166.369 240.417 166.369Z" fill="white"/>
<path d="M251.825 167.501V163.581C251.825 163.071 251.664 162.651 251.34 162.321C251.017 161.991 250.599 161.826 250.085 161.826C249.743 161.826 249.439 161.901 249.173 162.052C248.906 162.203 248.697 162.411 248.545 162.675C248.393 162.939 248.317 163.241 248.317 163.581L247.789 163.283C247.789 162.774 247.903 162.321 248.132 161.925C248.36 161.528 248.678 161.217 249.087 160.99C249.496 160.755 249.957 160.637 250.471 160.637C250.984 160.637 251.436 160.764 251.825 161.019C252.225 161.274 252.538 161.609 252.767 162.024C252.995 162.429 253.109 162.863 253.109 163.326V167.501H251.825ZM247.033 167.501V160.778H248.317V167.501H247.033Z" fill="white"/>
<path d="M254.847 167.501V157.396H256.13V167.501H254.847Z" fill="white"/>
<path d="M258.023 167.501V160.778H259.306V167.501H258.023ZM258.664 159.434C258.427 159.434 258.232 159.358 258.08 159.207C257.928 159.047 257.852 158.849 257.852 158.613C257.852 158.386 257.928 158.198 258.08 158.047C258.232 157.886 258.427 157.806 258.664 157.806C258.902 157.806 259.097 157.886 259.249 158.047C259.401 158.198 259.477 158.386 259.477 158.613C259.477 158.849 259.401 159.047 259.249 159.207C259.097 159.358 258.902 159.434 258.664 159.434Z" fill="white"/>
<path d="M265.99 167.501V163.581C265.99 163.071 265.828 162.651 265.505 162.321C265.182 161.991 264.763 161.826 264.25 161.826C263.908 161.826 263.603 161.901 263.337 162.052C263.071 162.203 262.862 162.411 262.71 162.675C262.557 162.939 262.481 163.241 262.481 163.581L261.954 163.283C261.954 162.774 262.068 162.321 262.296 161.925C262.524 161.528 262.843 161.217 263.252 160.99C263.66 160.755 264.122 160.637 264.635 160.637C265.148 160.637 265.6 160.764 265.99 161.019C266.389 161.274 266.703 161.609 266.931 162.024C267.159 162.429 267.273 162.863 267.273 163.326V167.501H265.99ZM261.198 167.501V160.778H262.481V167.501H261.198Z" fill="white"/>
<path d="M272.149 167.643C271.474 167.643 270.865 167.492 270.323 167.19C269.781 166.878 269.354 166.458 269.04 165.93C268.726 165.402 268.569 164.802 268.569 164.133C268.569 163.472 268.721 162.878 269.025 162.349C269.339 161.821 269.758 161.406 270.281 161.104C270.813 160.792 271.407 160.637 272.063 160.637C272.691 160.637 273.242 160.778 273.718 161.061C274.203 161.344 274.578 161.736 274.844 162.236C275.12 162.736 275.258 163.302 275.258 163.934C275.258 164.029 275.253 164.133 275.244 164.246C275.234 164.35 275.215 164.472 275.187 164.614H269.468V163.552H274.502L274.031 163.963C274.031 163.51 273.951 163.128 273.789 162.816C273.627 162.495 273.399 162.25 273.104 162.08C272.81 161.901 272.453 161.811 272.035 161.811C271.597 161.811 271.212 161.906 270.88 162.094C270.547 162.283 270.29 162.547 270.109 162.887C269.929 163.227 269.838 163.628 269.838 164.09C269.838 164.562 269.934 164.977 270.124 165.336C270.314 165.685 270.585 165.958 270.937 166.156C271.288 166.345 271.692 166.439 272.149 166.439C272.529 166.439 272.876 166.373 273.19 166.241C273.513 166.109 273.789 165.911 274.017 165.647L274.844 166.482C274.521 166.859 274.122 167.147 273.646 167.345C273.18 167.543 272.681 167.643 272.149 167.643Z" fill="white"/>
</svg>
